<svg width="18" height="18" viewBox="0 0 18 18" fill="none" xmlns="http://www.w3.org/2000/svg">
<g id="Layer 2">
<g id="arrow-ios-forward">
<path id="&#227;&#131;&#145;&#227;&#130;&#185; 43826" d="M7.47002 14.3553C7.29126 14.3557 7.11803 14.2934 6.98038 14.1794C6.82392 14.0497 6.7255 13.863 6.70685 13.6606C6.68819 13.4583 6.75082 13.2568 6.88092 13.1006L10.3084 8.99995L7.00333 4.8916C6.87498 4.73355 6.81492 4.53085 6.83646 4.32838C6.858 4.12592 6.95936 3.94039 7.11809 3.81288C7.27812 3.67208 7.48962 3.60442 7.70166 3.6262C7.91369 3.64799 8.10702 3.75724 8.23507 3.92763L11.9303 8.51797C12.1623 8.80028 12.1623 9.20728 11.9303 9.48959L8.10501 14.0799C7.94935 14.2677 7.71348 14.37 7.47002 14.3553Z" fill="#1391E6"/>
</g>
</g>
</svg>
