<svg width="34" height="32" viewBox="0 0 34 32" fill="none" xmlns="http://www.w3.org/2000/svg">
<g id="icon">
<path id="&#227;&#131;&#145;&#227;&#130;&#185; 43707" d="M31.1766 5.6606C30.2609 4.88412 29.1487 4.3341 27.9864 3.998C25.7828 3.36123 23.4365 4.17124 21.953 5.9552C21.1143 6.96339 19.8645 7.60284 18.4685 7.60284C17.1235 7.60284 15.9152 7.00936 15.0783 6.0648C13.4287 4.20142 10.93 3.32846 8.59144 4.10678C7.56754 4.44721 6.59301 4.96193 5.76905 5.6606C0.510307 10.1279 4.06317 20.5171 4.69757 22.3479C6.52809 27.6164 10.1389 31.9899 12.1807 31.9917C13.7135 31.9934 14.6499 32.0439 15.8754 27.0124C16.1974 25.6972 16.9089 24.8005 17.603 24.3414C18.066 24.0353 18.6719 24.0336 19.1427 24.3273C19.8714 24.7819 20.6469 25.684 20.9715 27.0124C22.1979 32.0439 23.3031 32.0403 24.7174 31.9917C26.7547 31.9227 30.3968 27.6164 32.2229 22.3479C32.8565 20.5171 36.4354 10.1279 31.1766 5.6606Z" fill="#1391E6"/>
<path id="&#227;&#131;&#145;&#227;&#130;&#185; 43804" d="M14.4644 17.2517C14.4644 19.3233 16.1099 21.0027 18.1398 21.0027C20.1698 21.0027 21.8153 19.3233 21.8153 17.2517C20.7693 17.2517 14.4644 17.2517 14.4644 17.2517Z" fill="white"/>
<path id="&#227;&#131;&#145;&#227;&#130;&#185; 43725" d="M1.65075 6.38826C1.74272 6.71168 2.07704 7.05159 2.39395 7.14546L2.6077 7.20888C2.92462 7.30147 2.92462 7.45494 2.6077 7.54752L2.39395 7.61094C2.07704 7.70479 1.74272 8.0447 1.65075 8.36814L1.58861 8.58756C1.49789 8.91098 1.3475 8.91098 1.25679 8.58756L1.19464 8.36814C1.10391 8.0447 0.769605 7.70479 0.452696 7.61094L0.237684 7.54752C-0.079228 7.45494 -0.079228 7.30147 0.237684 7.20888L0.452696 7.14546C0.769605 7.05159 1.10391 6.71168 1.19464 6.38826L1.25679 6.16884C1.3475 5.84541 1.49789 5.84541 1.58861 6.16884L1.65075 6.38826Z" fill="#1391E6"/>
<path id="&#227;&#131;&#145;&#227;&#130;&#185; 43727" d="M4.44659 0.942061C4.63426 1.6016 5.31532 2.29793 5.96157 2.48817L6.40028 2.61627C7.04654 2.80779 7.04654 3.1198 6.40028 3.31005L5.96157 3.43817C5.31532 3.62841 4.63426 4.32474 4.44659 4.98426L4.32108 5.43072C4.13465 6.09153 3.82893 6.09153 3.64251 5.43072L3.51575 4.98426C3.32933 4.32474 2.64702 3.62841 2.00077 3.43817L1.56331 3.31005C0.917047 3.1198 0.917047 2.80779 1.56331 2.61627L2.00077 2.48817C2.64702 2.29793 3.32933 1.6016 3.51575 0.942061L3.64251 0.495614C3.82893 -0.165205 4.13465 -0.165205 4.32108 0.495614L4.44659 0.942061Z" fill="#1391E6"/>
<path id="&#233;&#149;&#183;&#230;&#150;&#185;&#229;&#189;&#162; 23377" d="M14.0854 11.8654C14.0854 11.3056 14.5393 10.8518 15.099 10.8518C15.6588 10.8518 16.1126 11.3056 16.1126 11.8654V13.9759C16.1126 14.5357 15.6588 14.9895 15.099 14.9895C14.5393 14.9895 14.0854 14.5357 14.0854 13.9759V11.8654Z" fill="white"/>
<path id="&#233;&#149;&#183;&#230;&#150;&#185;&#229;&#189;&#162; 23378" d="M20.167 11.8654C20.167 11.3056 20.6208 10.8518 21.1806 10.8518C21.7404 10.8518 22.1942 11.3056 22.1942 11.8654V13.9759C22.1942 14.5357 21.7404 14.9895 21.1806 14.9895C20.6208 14.9895 20.167 14.5357 20.167 13.9759V11.8654Z" fill="white"/>
</g>
</svg>
